<?xml version="1.0" encoding="utf-8"?>
<!-- Generator: Adobe Illustrator 17.1.0, SVG Export Plug-In . SVG Version: 6.00 Build 0)  -->
<!DOCTYPE svg PUBLIC "-//W3C//DTD SVG 1.1//EN" "http://www.w3.org/Graphics/SVG/1.1/DTD/svg11.dtd">
<svg version="1.1" id="Layer_1" xmlns="http://www.w3.org/2000/svg" xmlns:xlink="http://www.w3.org/1999/xlink" x="0px" y="0px"
	 viewBox="0 0 300 300" enable-background="new 0 0 300 300" xml:space="preserve">
<g>
	<g>
		<g>
			<linearGradient id="SVGID_1_" gradientUnits="userSpaceOnUse" x1="81.7555" y1="86.4073" x2="108.2353" y2="86.4073">
				<stop  offset="0" style="stop-color:#FB5438"/>
				<stop  offset="1" style="stop-color:#FFBA50"/>
			</linearGradient>
			<circle fill="url(#SVGID_1_)" cx="95" cy="86.4" r="13.2"/>
		</g>
		<g>
			<linearGradient id="SVGID_2_" gradientUnits="userSpaceOnUse" x1="136.7679" y1="86.4073" x2="163.2477" y2="86.4073">
				<stop  offset="0" style="stop-color:#FB5438"/>
				<stop  offset="1" style="stop-color:#FFBA50"/>
			</linearGradient>
			<circle fill="url(#SVGID_2_)" cx="150" cy="86.4" r="13.2"/>
		</g>
		<g>
			<linearGradient id="SVGID_3_" gradientUnits="userSpaceOnUse" x1="191.7803" y1="86.4073" x2="218.2602" y2="86.4073">
				<stop  offset="0" style="stop-color:#FB5438"/>
				<stop  offset="1" style="stop-color:#FFBA50"/>
			</linearGradient>
			<circle fill="url(#SVGID_3_)" cx="205" cy="86.4" r="13.2"/>
		</g>
	</g>
	<linearGradient id="SVGID_4_" gradientUnits="userSpaceOnUse" x1="32.3629" y1="165.1566" x2="267.637" y2="165.1566">
		<stop  offset="0" style="stop-color:#FB5438"/>
		<stop  offset="1" style="stop-color:#FFBA50"/>
	</linearGradient>
	<path fill="url(#SVGID_4_)" d="M218.9,37.2H81.2c-26.9,0-48.8,21.9-48.8,48.8v0.8c0,26.9,21.9,48.8,48.8,48.8h19.7v108.7
		c0,26.9,21.9,48.8,48.8,48.8h0.8c26.9,0,48.8-21.9,48.8-48.8V135.6h19.7c26.9,0,48.8-21.9,48.8-48.8V86
		C267.6,59.1,245.8,37.2,218.9,37.2z M253.3,86.8c0,19-15.4,34.5-34.4,34.5h-34v123c0,19-15.4,34.4-34.4,34.4h-0.8
		c-19,0-34.4-15.4-34.4-34.4v-123h-34c-19,0-34.5-15.5-34.5-34.5V86c0-19,15.5-34.4,34.5-34.4h137.7c19,0,34.4,15.4,34.4,34.4V86.8z
		"/>
	<linearGradient id="SVGID_5_" gradientUnits="userSpaceOnUse" x1="122.3002" y1="207.1895" x2="177.6996" y2="207.1895">
		<stop  offset="0" style="stop-color:#FB5438"/>
		<stop  offset="1" style="stop-color:#FFBA50"/>
	</linearGradient>
	<path fill="url(#SVGID_5_)" d="M158,151.6v89.1c0,4.3-3.5,7.8-7.8,7.8h-0.3c-4.3,0-7.8-3.5-7.8-7.8v-89.1h-19.7v14.3h5.4v74.8
		c0,12.2,9.9,22.2,22.2,22.2h0.3c12.2,0,22.2-9.9,22.2-22.2v-74.8h5.4v-14.3H158z"/>
	<linearGradient id="SVGID_6_" gradientUnits="userSpaceOnUse" x1="2.0736" y1="86.4018" x2="297.9264" y2="86.4018">
		<stop  offset="0" style="stop-color:#FB5438"/>
		<stop  offset="1" style="stop-color:#FFBA50"/>
	</linearGradient>
	<path fill="url(#SVGID_6_)" d="M218.9,6.9H81.2C37.5,6.9,2.1,42.4,2.1,86v0.8c0,43.6,35.5,79.1,79.1,79.1h12.5v-14.3H81.2
		c-35.7,0-64.8-29-64.8-64.8V86c0-35.7,29-64.8,64.8-64.8h137.7c35.7,0,64.7,29,64.7,64.8v0.8c0,35.7-29,64.8-64.7,64.8h-12.5v14.3
		h12.5c43.6,0,79.1-35.5,79.1-79.1V86C297.9,42.4,262.5,6.9,218.9,6.9z"/>
</g>
</svg>
